<svg xmlns="http://www.w3.org/2000/svg" viewBox="0 0 1024 1024" role="img" aria-labelledby="title desc">
  <title id="title">Alex goose climbing mascot</title>
  <desc id="desc">A white goose with a mustard chalk bag standing on an angular boulder in a dark alpine climbing scene.</desc>
  <defs>
    <linearGradient id="sky" x1="0" x2="0" y1="0" y2="1">
      <stop offset="0" stop-color="#2e4152"/>
      <stop offset="1" stop-color="#10202b"/>
    </linearGradient>
    <linearGradient id="rock" x1="0" x2="1" y1="0" y2="1">
      <stop offset="0" stop-color="#d18c78"/>
      <stop offset=".45" stop-color="#465f6b"/>
      <stop offset="1" stop-color="#16232b"/>
    </linearGradient>
  </defs>
  <rect width="1024" height="1024" fill="url(#sky)"/>
  <path d="M-10 760 170 621 330 688 524 594 725 680 1038 548v496H-10z" fill="#0d1720" opacity=".9"/>
  <path d="M34 186 220 16 340 280 220 486 88 408zM714 96 900 0l134 284-68 176-180-118z" fill="#111820" opacity=".78"/>
  <path d="M120 522c102-92 208-138 318-114 70 15 117-18 180-56 90-54 188-60 286-16" fill="none" stroke="#42586a" stroke-width="28" opacity=".45"/>
  <path d="M-20 806 180 662l304 22 230 96-30 142H-20z" fill="url(#rock)"/>
  <path d="M180 662 342 812 714 780 484 684z" fill="#263a44" opacity=".55"/>
  <path d="M-20 806h322l182-122M302 806l52 116M484 684l230 96M180 662 60 784" fill="none" stroke="#101820" stroke-width="11" opacity=".85"/>
  <path d="M468 292c-48 40-61 98-39 158l48 132c26 72 131 96 226 53 66-30 90-93 52-143L610 301c-46-61-96-47-142-9z" fill="#f2f0ea"/>
  <path d="M492 315c-37 34-49 78-33 122l45 127c21 58 108 75 184 39 44-21 61-61 33-99L591 330c-35-47-68-43-99-15z" fill="#d6d8dc" opacity=".45"/>
  <path d="M486 272c16-78 65-146 133-166 55-16 112 1 150 45" fill="none" stroke="#f4f2ee" stroke-width="58" stroke-linecap="round"/>
  <path d="M616 111c52-16 111 0 151 41" fill="none" stroke="#101820" stroke-width="7" stroke-linecap="round" opacity=".6"/>
  <path d="M748 148 869 184 764 228z" fill="#e99639"/>
  <path d="M758 169 847 188" stroke="#9a5424" stroke-width="8" stroke-linecap="round"/>
  <circle cx="726" cy="138" r="16" fill="#090d10"/>
  <circle cx="730" cy="132" r="5" fill="#fff"/>
  <path d="M498 270c25 7 48 3 69-11M456 348c28 6 59 3 91-8M522 190c34 16 68 20 102 11" fill="none" stroke="#707b88" stroke-width="7" stroke-linecap="round" opacity=".7"/>
  <path d="M563 507c72 58 143 75 213 49" fill="none" stroke="#7c8792" stroke-width="13" stroke-linecap="round" opacity=".75"/>
  <path d="M620 584c53 23 106 21 158-6" fill="none" stroke="#1c242b" stroke-width="8" stroke-linecap="round" opacity=".45"/>
  <path d="M420 424c-38 28-60 75-55 129" fill="none" stroke="#141b22" stroke-width="18" stroke-linecap="round"/>
  <path d="M366 530h86l18 112-76 32z" fill="#d9922e"/>
  <path d="M382 532h72l-12 28h-47z" fill="#17222b"/>
  <path d="M388 648c18 16 42 16 67 0M399 569l-12 76M441 570l12 72" fill="none" stroke="#6d421e" stroke-width="7" stroke-linecap="round"/>
  <path d="M547 650 519 786M634 668 615 805" fill="none" stroke="#3f3329" stroke-width="17" stroke-linecap="round"/>
  <path d="M505 786h80M598 804h96" fill="none" stroke="#d99d36" stroke-width="14" stroke-linecap="round"/>
  <path d="M120 824c96-22 190-24 282-4M778 792c80-9 155-30 225-63" fill="none" stroke="#d7e4e8" stroke-width="9" opacity=".45" stroke-linecap="round"/>
  <path d="M70 238c65-90 135-137 210-142M752 74c50-35 102-52 156-51" fill="none" stroke="#d5977e" stroke-width="9" opacity=".42" stroke-linecap="round"/>
</svg>
